<?xml version="1.0" encoding="utf-8"?>
<!-- Generator: Adobe Illustrator 16.0.0, SVG Export Plug-In . SVG Version: 6.00 Build 0)  -->
<!DOCTYPE svg PUBLIC "-//W3C//DTD SVG 1.1//EN" "http://www.w3.org/Graphics/SVG/1.1/DTD/svg11.dtd">
<svg version="1.1" id="Layer_1" xmlns="http://www.w3.org/2000/svg" xmlns:xlink="http://www.w3.org/1999/xlink" x="0px" y="0px"
	 width="612px" height="639.01px" viewBox="0 0 612 639.01" enable-background="new 0 0 612 639.01" xml:space="preserve">

<g id="Layer_2">
		<text transform="matrix(1 0 0 1 242.3337 522.677)" display="none" fill="#DF1916" enable-background="new    " font-family="'Roboto-Regular'" font-size="36">NAHUAL</text>
</g>
<g id="Layer_4">
	<path fill="#31A560" d="M306.922,352.889c-0.183,0.041-0.358,0.084-0.547,0.121c-11.375-2.25-9.625-12-9.625-12h10.172v-5.998
		c-0.187,0.001-0.359-0.004-0.549-0.002c-20.836-0.243-17.373,10-17.373,10s2.25,12.25-3.25,12.75s-4.5-4.25-4.75-16.75
		c-0.223-11.071,14.061-13.708,17.33-14.166l-0.083-0.084H299h7.922v-89.077h-13.077h-0.512l-17.667-25
		c-5-5.333-4.667-10.667-4.667-10.667c0-29-17.667-46.667-17.667-46.667c-18.667-31.333-8.333-0.333-8.333-0.333
		c8.333,26,13.453,22.322,16.667,34c3.667,22.667-1.667,18.667-10.667,12.667s-37.333-24.667-37.333-24.667
		s-30-15.668-41.667-33.667c-3.667-30.333-6.333-36-6.333-36C160.667,70.683,195,26.683,195,26.683s0,0,9.667-19
		s-9.667,11.333-14.333,16S178.08,34.86,173.977,44.017c-17.977,41-22.311,0-22.311,0C162-7.316,156,3.017,156,3.017
		c-9.964,35.893-11.667,40-11.667,40s5.667,18.667,6,42s9.667,59,9.667,59c-8.195-2.39-19.741-12.909-21-17.667
		c-3-11.338-12-37.338-9.333-27C131,133.684,141,144.684,156,152.684c14.667,10.328-4-0.005,27.667,23
		c22.667,11,43,23.996,43,23.996c-14,0.333-21.667-8.667-25.667-10s-9.675,21.082,25.333,20.822s30,18.512,30,18.512
		c-3.333-0.667,0,4.333,0,4.333C258,237.68,259,253.013,259,253.013c-45.667-50.001-75.333-42.333-75.333-42.333
		c6,55.333,54,84.333,65,82s7.667,1.666,7.667,15c0.333,20.665-2.798,22.475-7.667,52C253,411.345,306,463.68,306,463.68
		c0.389,0.2,0.672,0.292,0.922,0.318V352.889z M266.5,323.76c0,0-8-15.75,2.5-23.75c8.75-2,16-0.5,16-0.5s-11.778-21.49-29-22.25
		c0,0-7.25-20-21.75-27.25c0,0-1.75,11.5,8,26c0,0-13-3-30.75-24c-11.502-17.612-13.75-31.5-13.75-31.5s42.5,11.5,64,50.25
		c0,0,20,11.25,26.25,20.5s2.75,18-8.75,20.75C279.25,312.01,279,321.01,266.5,323.76z"/>
</g>
<g id="Layer_5">
	<path fill="#C3E362" d="M345.73,335.322c0,0,4.521-5.146,1.771-7.416C344.75,325.636,339.086,328.508,345.73,335.322z"/>
	<path fill="#64B943" d="M334.066,298.385c0,0,9.48,0.375,9.582-2.875C343.75,292.26,345.263,292.621,334.066,298.385z"/>
	<path fill="#C3E362" d="M328.734,226.048c0,0,9.599,14.549,28.767,2.917c0,0-5.824-17.792,28.338-18.462
		c0,0-21.506-3.67-34.506,5.997c0,0-12.411,7.297-15.955,0.147L328.734,226.048z"/>
	<path fill="#64B943" d="M362.832,209.006c0,0,23.006-4.667,36,0.813c0,0,15.056-1.948,16.713-12.305
		c1.787-11.176-4.014-8.477-7.687-4.804c-2.59,2.59-15.002,6.975-20.681,6.968C387.179,199.68,373.665,200.339,362.832,209.006z"/>
	<path fill="#64B943" d="M362.832,209.006c0,0,26.522-6.5,36,0.813c0,0,15.056-1.948,16.713-12.305"/>
	<path fill="#64B943" d="M342.846,202.017"/>
	<path fill="#C3E362" d="M342.846,202.017c0,0,1.868-38.896,27.845-60.617c0,0,5.563,11.404-16.563,42.508
		C354.127,183.908,344.566,198.304,342.846,202.017z"/>
	<path fill="#64B943" d="M351.748,191.849l-12.867,20.042c0,0,1.082,8.494,10.243,0.62
		C362.832,200.635,347.76,213.607,351.748,191.849z"/>
	<path fill="#3EA52A" d="M357.078,208.635c0,0,37.146-30.097,55.972-39.298s24.536,2.645,17.128,6.347s-26.038,13.833-26.038,13.833
		S391.782,190.26,357.078,208.635z"/>
	<path fill="#C3E362" d="M421.364,163.553c0,0,26.304-5.875,31.804-19.375s-12.31-6.488-11.321-0.828
		C440.166,148.844,421.364,163.553,421.364,163.553z"/>
	<path fill="#64B943" d="M433.315,164.673c0,0,21.043-2.313,24.53-11.99C461.331,143.006,449.131,157.34,433.315,164.673z"/>
	<path fill="#64B943" d="M456.666,146.844c0,0,18.949-6.518,22.976-18.842s5.19-21.158,1.69-19.658s-4.834,10.667-5,13
		C476.167,123.677,475.001,133.678,456.666,146.844z"/>
	<path fill="#64B943" d="M456.357,133.553c0,0,8.805-44.684,7.474-56.53c-1.33-11.846-16.665-17.18-14.83,1.487
		C450.834,97.177,460.048,97.263,456.357,133.553z"/>
	<path fill="#64B943" d="M442.488,138.197c0,0,14.344-7.802,13.179-23.687c-1.164-15.885-7.429-12.258-9.786,1.92
		C443.522,130.608,442.488,138.197,442.488,138.197z"/>
	<path fill="#C3E362" d="M445.88,79.941c0,0,0.874-24.008-8.086-39.881s-13.255-3.257-7.44,4.019
		C436.168,51.353,445.88,79.941,445.88,79.941z"/>
	<path fill="#64B943" d="M425.465,36.153c0,0-17.938-26.699-18.867-34.666c-0.93-7.966,11.949,18.544,14.767,20.701
		C424.183,24.345,422.763,28.784,425.465,36.153z"/>
	<path fill="#3EA52A" d="M456.407,61.043c0,0,21.825-9.74,9.792-28.631c-12.033-18.892-3.699,10.942-3.865,11.775
		C462.166,45.021,464.316,52.231,456.407,61.043z"/>
	<path fill="#64B943" d="M463.968,24.744c0,0-3.468-25.606-7.302-22.498C452.834,5.354,462.935,21.171,463.968,24.744z"/>
	<path fill="#64B943" d="M482.777,107.483c0,0,3.48-10.668,0.814-10.501S483.015,104.656,482.777,107.483z"/>
	<path fill="#64B943" d="M357.637,293.256c0,0-5.906-12.498,7.229-30.122c8.136-11.957,14.201-13.124,14.201-13.124
		s2.062,11.246-7.753,25.623C361.5,290.01,357.637,293.256,357.637,293.256z"/>
	<path fill="#64B943" d="M351.566,270.76c0,0-0.424-29.43,39.977-49.113c26.125-15.804,38.636-10.967,38.636-10.967
		s1.155,5.176-38.011,18.83C358.832,241.13,351.566,270.76,351.566,270.76z"/>
	<path fill="#3EA52A" d="M366.838,292.803c0,0,36.962-5.751,58.896-61.439c0,0-1.43-22.981-14.748,3.499
		C397.668,261.344,402.509,276.596,366.838,292.803z"/>
	<path fill="#64B943" d="M362.832,291.51c0,0,23.248-10.754,28.041-19.877c4.794-9.123-9.334-3.456-14.021,4.377
		S362.832,291.51,362.832,291.51z"/>
	<path fill="#3EA52A" d="M328.316,299.51c0,0,10.304-14.55,15.69-17.485c5.386-2.935,10.325,4.647,3.992,6.814
		C341.666,291.006,331.633,296.681,328.316,299.51z"/>
	<path fill="#64B943" d="M346.816,323.76c0,0,18.685-18.42,4.75-32.25c-3.733,0-8.126,5.569-6.683,8.97
		C347.77,306.378,352.5,306.84,346.816,323.76z"/>
	<path fill="#64B943" d="M334.066,312.01c0,0-22.565,2.625-22.69-11s11.46-9.758,10.921,0
		C321.875,308.635,334.066,312.01,334.066,312.01z"/>
	<path fill="#64B943" d="M323.887,293.703c0,0-0.137-20.942,14.238-27.567c0,0,6.263-3.266,8.25,1.625
		c1.986,4.891-4.078,8.759-4.078,8.759S326.273,286.395,323.887,293.703z"/>
	<path fill="#3EA52A" d="M346.25,323.76c0,0-14.156,5.875-17.517-2.25c0,0-1.858-4.125,1.392-6.25s6.211,2.438,6.211,2.438
		S341.375,324.135,346.25,323.76z"/>
	<path fill="#64B943" d="M330.382,356.75c0,0,18.118-6.49,11.493-22.24c0,0-2.709-5.167-7.81-3.125s-2.489,7.384-2.489,7.384
		S333.389,345.366,330.382,356.75z"/>
	<path fill="#3EA52A" d="M322.721,339.711c0,0-14.429,3.155-15.554,0.079S311.316,331.538,322.721,339.711z"/>
	<path fill="#64B943" d="M306.922,352.891c0,0,8.578,3.244,14.578-4.006c0,0,2.25-4.113-1.875-5.057
		c-4.125-0.944-4.594,3.528-4.594,3.528S312.845,351.647,306.922,352.891"/>
	<path fill="#64B943" d="M329.481,334.05c0,0-4.23-6.29-16.73-7.29c0,0-6.453-0.75-5.828-8S328.588,305.59,329.481,334.05z"/>
	<path fill="#64B943" d="M306.922,464.012c0,0,23.011-22.034,34.699-43.004c0,0,6.379-11.373-3.496-14.873
		s-12.841,9.625-12.841,9.625L306.922,464.012"/>
	<path fill="#3EA52A" d="M345.034,415.457c0,0,34.247-60.584,12.466-61.071C335.718,353.899,351.695,400.528,345.034,415.457z"/>
	<path fill="#C3E362" d="M306.88,459.26c0,0-1.721-57.625,7.638-57.125S327.76,398.885,306.88,459.26"/>
	<path fill="#64B943" d="M308.25,408.26c0,0,11.19-39.25,14.471-42.375s-0.846-9.75-5.471-10.25s-10.136-1.75-10.231,10.875
		C306.922,379.135,306.75,401.51,308.25,408.26z"/>
	<path fill="#64B943" d="M324.924,410.26c0,0,4.485-11.75-5.069-11.75s-1.056-15.375,1.569-11S331.674,402.635,324.924,410.26z"/>
	<path fill="#64B943" d="M331.25,402.132c0,0-4.306-13.247-5.966-19.122c-1.659-5.875-5.625-13.25,2.357-15.5
		C335.623,365.26,330.625,375.004,331.25,402.132z"/>
	<path fill="#64B943" d="M345.034,408.26c0,0,0.509-22.939-5.389-23.595c-5.897-0.656-7.139,7.626-5.58,11.798
		C335.625,400.635,342.82,400.76,345.034,408.26z"/>
	<path fill="#64B943" d="M334.066,377.385c0,0,5.06-26.371,14.56-36.248c0,0,11.021-10.345,13.072,0
		c2.053,10.345-4.072,9.623-4.072,9.623S345.383,348.51,334.066,377.385z"/>
	<path fill="#C3E362" d="M333.45,385.385c0,0,6.05-17.875,8.8-17.125S346.421,372.237,333.45,385.385z"/>
	<path fill="#64B943" d="M346.775,339.385c0,0,11.733-5.832,11.226-17.852C357.491,309.513,354.361,320.024,346.775,339.385z"/>
	<path fill="#C3E362" d="M308.125,305.01c0,0-3.875-67.904,2.75-67.327S328.734,228.385,308.125,305.01z"/>
	<path fill="#64B943" d="M319.25,289.76c0,0-3.75-29.5,7.375-36.625S324.31,271.721,319.25,289.76z"/>
	<path fill="#3EA52A" d="M331.5,265.76c0,0,8.909-22.125-3.296-19c0,0-9.289-4.752-6.51-10.752s7.555-5.413,9.805-3.252
		S356.313,250.01,331.5,265.76z"/>
	<path fill="#64B943" d="M348.75,271.633c0,0-5.355-21.873-1.804-32.123s10.668-3.767,8.985,1.992
		C354.248,247.261,348.75,255.631,348.75,271.633z"/>
	<g enable-background="new    ">
		<path fill="#31A560" d="M174.103,568.499h-14.268l-28.83-48.786l-0.294,0.05v48.736h-14.317v-71.389h14.317l28.83,48.736
			l0.294-0.049v-48.688h14.268V568.499z"/>
		<path fill="#31A560" d="M225.781,553.104h-25.055l-4.854,15.396h-14.464l24.564-71.389h14.66l24.466,71.389h-14.464
			L225.781,553.104z M204.257,541.875h17.995l-8.826-28.045h-0.294L204.257,541.875z"/>
		<path fill="#31A560" d="M309.477,568.499h-14.268v-29.664h-29.124v29.664h-14.317v-71.389h14.317v30.693h29.124v-30.693h14.268
			V568.499z"/>
		<path fill="#31A560" d="M379.346,497.111v47.363c0,8.009-2.648,14.188-7.943,18.534c-5.295,4.348-12.225,6.521-20.789,6.521
			c-8.531,0-15.42-2.173-20.666-6.521c-5.246-4.347-7.869-10.525-7.869-18.534v-47.363h14.365v47.326
			c0,4.703,1.258,8.223,3.775,10.558s5.982,3.503,10.395,3.503c4.479,0,7.992-1.159,10.542-3.479s3.824-5.846,3.824-10.582v-47.326
			H379.346z"/>
		<path fill="#31A560" d="M428.916,553.104h-25.055l-4.854,15.396h-14.464l24.564-71.389h14.66l24.467,71.389H433.77
			L428.916,553.104z M407.391,541.875h17.994l-8.824-28.045h-0.295L407.391,541.875z"/>
		<path fill="#31A560" d="M469.219,557.467h31.771v11.032h-46.088v-71.389h14.316V557.467z"/>
	</g>
	<g enable-background="new    ">
		<path fill="#31A560" d="M268.658,610.106c0-0.964-0.397-1.807-1.192-2.53c-0.794-0.723-2.228-1.312-4.3-1.769
			c-2.466-0.534-4.287-1.239-5.463-2.116c-1.176-0.878-1.764-2.117-1.764-3.719c0-1.576,0.664-2.907,1.993-3.994
			c1.328-1.087,3.085-1.631,5.272-1.631c2.326,0,4.169,0.575,5.53,1.726c1.36,1.151,2.008,2.591,1.945,4.319l-0.038,0.114h-2.117
			c0-1.131-0.48-2.116-1.439-2.955c-0.96-0.84-2.253-1.259-3.88-1.259c-1.666,0-2.914,0.357-3.747,1.072
			c-0.833,0.714-1.249,1.552-1.249,2.513c0,0.949,0.359,1.733,1.077,2.354c0.718,0.619,2.151,1.163,4.3,1.631
			c2.453,0.549,4.29,1.298,5.511,2.248c1.22,0.95,1.831,2.241,1.831,3.874c0,1.722-0.696,3.114-2.088,4.179
			c-1.392,1.065-3.232,1.598-5.521,1.598c-2.504,0-4.471-0.598-5.901-1.792c-1.43-1.195-2.107-2.619-2.03-4.271l0.038-0.114h2.097
			c0.089,1.48,0.696,2.556,1.821,3.227c1.125,0.671,2.45,1.006,3.976,1.006c1.652,0,2.956-0.361,3.909-1.084
			C268.181,612.008,268.658,611.133,268.658,610.106z"/>
		<path fill="#31A560" d="M279.774,589.447v5.282h4.538v1.868h-4.538v13.442c0,1.348,0.245,2.305,0.734,2.87
			c0.489,0.565,1.141,0.849,1.954,0.849c0.369,0,0.728-0.016,1.078-0.048c0.35-0.031,0.753-0.086,1.211-0.162l0.343,1.697
			c-0.381,0.165-0.845,0.292-1.392,0.381c-0.547,0.089-1.094,0.134-1.64,0.134c-1.449,0-2.577-0.458-3.384-1.373
			c-0.808-0.915-1.211-2.364-1.211-4.348v-13.442h-3.565v-1.868h3.565v-5.282H279.774z"/>
		<path fill="#31A560" d="M302.675,611.985c-0.661,1.208-1.551,2.139-2.669,2.793c-1.119,0.655-2.441,0.982-3.966,0.982
			c-2.174,0-3.877-0.737-5.11-2.212c-1.233-1.475-1.85-3.763-1.85-6.864v-11.955h2.288v12.018c0,2.521,0.429,4.33,1.287,5.426
			c0.858,1.096,2.075,1.643,3.651,1.643c1.729,0,3.108-0.388,4.138-1.165c1.029-0.777,1.748-1.847,2.154-3.21v-14.711h2.288v20.631
			h-2.021L302.675,611.985z"/>
		<path fill="#31A560" d="M309.996,605.216c0-3.293,0.695-5.927,2.088-7.904c1.392-1.976,3.334-2.965,5.824-2.965
			c1.438,0,2.683,0.306,3.738,0.915c1.055,0.61,1.932,1.476,2.631,2.594v-12.241h2.27v29.745h-2.021l-0.191-2.993
			c-0.686,1.093-1.569,1.932-2.65,2.517c-1.08,0.584-2.352,0.877-3.813,0.877c-2.467,0-4.396-0.918-5.787-2.755
			c-1.393-1.837-2.088-4.3-2.088-7.389V605.216z M312.284,605.618c0,2.503,0.499,4.494,1.497,5.976
			c0.997,1.48,2.5,2.221,4.509,2.221c1.475,0,2.704-0.331,3.69-0.995c0.984-0.664,1.75-1.583,2.297-2.758v-9.729
			c-0.521-1.2-1.258-2.174-2.212-2.921c-0.953-0.747-2.199-1.12-3.737-1.12c-2.008,0-3.518,0.826-4.528,2.479
			c-1.011,1.654-1.516,3.802-1.516,6.444V605.618z"/>
		<path fill="#31A560" d="M335.184,588.818h-2.269v-3.203h2.269V588.818z M335.184,615.36h-2.269v-20.631h2.269V615.36z"/>
		<path fill="#31A560" d="M340.219,604.739c0-3.037,0.832-5.529,2.497-7.474c1.665-1.945,3.87-2.918,6.616-2.918
			c2.758,0,4.971,0.973,6.636,2.918c1.665,1.944,2.498,4.437,2.498,7.474v0.63c0,3.051-0.829,5.546-2.488,7.483
			c-1.659,1.939-3.861,2.908-6.606,2.908c-2.771,0-4.99-0.969-6.655-2.908c-1.665-1.938-2.497-4.433-2.497-7.483V604.739z
			 M342.506,605.359c0,2.387,0.604,4.394,1.812,6.019c1.208,1.626,2.892,2.438,5.054,2.438c2.122,0,3.791-0.812,5.004-2.438
			c1.215-1.625,1.822-3.632,1.822-6.019v-0.629c0-2.349-0.611-4.343-1.831-5.98s-2.898-2.457-5.034-2.457
			c-2.135,0-3.807,0.819-5.015,2.457s-1.812,3.632-1.812,5.98V605.359z"/>
	</g>
	<path fill="#64B943" d="M326.5,364.385c0,0,5.161-6.221,8.83-7.423C339,355.76,335.125,367.635,326.5,364.385z"/>
	<path fill="#64B943" d="M356.729,296.76c0,0-6.188-13.57-4.334-17.535S353.459,285.26,356.729,296.76z"/>
</g>
</svg>
